# xmcd CD database file
#
# Track frame offsets:
#	150
#	28462
#	54501
#	78021
#	98760
#	121143
#	145477
#	174396
#	198438
#	226174
#	242236
#	260042
#	276734
#	303134
#
# Disc length: 4222 seconds
#
# Revision: 0
# Processed by: cddbd v1.5.1PL2 Copyright (c) Steve Scherf et al.
# Submitted via: CDex 1.51
#
DISCID=c4107c0e
DTITLE=Keiko Lee - Imagine
DYEAR=1900
DGENRE=Jazz
TTITLE0=Imagine
TTITLE1=Love Dance
TTITLE2=My Romance
TTITLE3=I Saw The Light
TTITLE4=Don't Explain
TTITLE5=Human Nature
TTITLE6=What A Wonderful World
TTITLE7=My Love
TTITLE8=New York State Of Mind
TTITLE9=Fly Me To The Moon(In Other Words)
TTITLE10=If It's Love(2001 Version)
TTITLE11=Greatest Love Of All
TTITLE12=Distance
TTITLE13=We Will Rock You
EXTD=
EXTT0=
EXTT1=
EXTT2=
EXTT3=
EXTT4=
EXTT5=
EXTT6=
EXTT7=
EXTT8=
EXTT9=
EXTT10=
EXTT11=
EXTT12=
EXTT13=
PLAYORDER=
